<svg width="86" height="52" viewBox="0 0 86 52" fill="none" 
  xmlns="http://www.w3.org/2000/svg">
  <path d="M34.0104 28.1282H25.8566V36.9051H21.1973V15.4845H25.8566V24.0159H34.0104V15.4845H38.6697V36.9051H34.0104V28.1282ZM60.637 33.4987H60.4838C60.3203 34.583 59.7685 35.4832 58.8285 36.1993C57.8884 36.9154 56.6112 37.2734 54.9968 37.2734C53.7707 37.2734 52.6263 37.0381 51.5636 36.5675C50.501 36.097 49.5711 35.4014 48.7741 34.4807C47.9772 33.5601 47.3539 32.4144 46.9043 31.0436C46.4547 29.6729 46.2299 28.0873 46.2299 26.2869C46.2299 24.4865 46.4649 22.8907 46.9349 21.4995C47.405 20.1083 48.0589 18.9421 48.8968 18.001C49.7551 17.0599 50.7768 16.3438 51.9621 15.8528C53.1474 15.3618 54.4655 15.1163 55.9164 15.1163C57.8373 15.1163 59.4926 15.5357 60.8823 16.3745C62.2719 17.1929 63.3652 18.4306 64.1622 20.0878L60.3612 22.2667C60.0342 21.4279 59.5233 20.722 58.8285 20.1492C58.1337 19.5559 57.163 19.2592 55.9164 19.2592C54.4655 19.2592 53.3109 19.6786 52.4526 20.5175C51.5943 21.3563 51.1651 22.6759 51.1651 24.4763V27.9134C51.1651 29.6933 51.5943 31.0129 52.4526 31.8722C53.3109 32.711 54.4655 33.1304 55.9164 33.1304C56.4886 33.1304 57.0301 33.0691 57.541 32.9463C58.0519 32.8031 58.5015 32.5985 58.8898 32.3325C59.2781 32.0461 59.5744 31.7085 59.7787 31.3198C60.0035 30.9311 60.1159 30.4708 60.1159 29.9388V28.8647H56.131V24.9673H64.5607V36.9051H60.637V33.4987Z" fill="#4A5568"/>
  <path d="M83.4455 2.55737H2.55444V49.4426H83.4455V2.55737Z" stroke="#4A5568" stroke-width="5"/>
</svg>
